<?xml version="1.0" encoding="UTF-8" standalone="no"?>
<svg width="1024" height="1024" viewBox="0 0 1024 1024" version="1.1" xmlns="http://www.w3.org/2000/svg" xmlns:xlink="http://www.w3.org/1999/xlink" xml:space="preserve" style="fill-rule:evenodd;clip-rule:evenodd;stroke-linejoin:round;stroke-miterlimit:2;">
    <defs>
        <!-- Background gradient: lighter top to darker bottom -->
        <linearGradient id="bgGradient" x1="0" y1="0" x2="0" y2="1">
            <stop offset="0%" stop-color="#f5a088"/>
            <stop offset="50%" stop-color="#e17055"/>
            <stop offset="100%" stop-color="#b84a30"/>
        </linearGradient>
        <!-- Drop shadow for the trident -->
        <filter id="tridentShadow" x="-5%" y="-5%" width="110%" height="115%">
            <feDropShadow dx="0" dy="4" stdDeviation="6" flood-color="#7a2a10" flood-opacity="0.35"/>
        </filter>
    </defs>
    <g transform="translate(100,100) scale(1.678)">
        <!-- Background with gradient -->
        <path d="M490.16,84.61C490.16,37.912 452.248,0 405.55,0L84.61,0C37.912,0 0,37.912 0,84.61L0,405.55C0,452.248 37.912,490.16 84.61,490.16L405.55,490.16C452.248,490.16 490.16,452.248 490.16,405.55L490.16,84.61Z" style="fill:url(#bgGradient);"/>
        <!-- Trident with drop shadow -->
        <path d="M407.48,111.18C335.587,108.103 269.573,152.338 245.08,220C220.587,152.338 154.573,108.103 82.68,111.18C80.285,168.229 107.577,222.632 154.74,254.82C178.908,271.419 193.35,298.951 193.27,328.27L193.27,379.13L296.9,379.13L296.9,328.27C296.816,298.953 311.255,271.42 335.42,254.82C382.596,222.644 409.892,168.233 407.48,111.18Z" style="fill:white;fill-rule:nonzero;" filter="url(#tridentShadow)"/>
    </g>
</svg>
